<mxfile host="app.diagrams.net" modified="2023-08-15T07:43:19.009Z" agent="Mozilla/5.0 (X11; Ubuntu; Linux x86_64; rv:109.0) Gecko/20100101 Firefox/116.0" etag="ctocyfy23ozmC5wLny3X" version="21.6.8" type="github">
  <diagram name="Seite-1" id="4oRYmAnO1Zew3VDdCZOv">
    <mxGraphModel dx="574" dy="377" grid="1" gridSize="10" guides="1" tooltips="1" connect="1" arrows="1" fold="1" page="1" pageScale="1" pageWidth="400" pageHeight="250" math="0" shadow="0">
      <root>
        <mxCell id="0" />
        <mxCell id="1" parent="0" />
        <mxCell id="o1f8kGy33XK3psHKGFTP-8" style="edgeStyle=orthogonalEdgeStyle;rounded=0;orthogonalLoop=1;jettySize=auto;html=1;exitX=1;exitY=0.5;exitDx=0;exitDy=0;exitPerimeter=0;entryX=0;entryY=0;entryDx=0;entryDy=0;endArrow=none;endFill=0;" edge="1" parent="1" source="o1f8kGy33XK3psHKGFTP-1" target="o1f8kGy33XK3psHKGFTP-5">
          <mxGeometry relative="1" as="geometry" />
        </mxCell>
        <mxCell id="o1f8kGy33XK3psHKGFTP-1" value="" style="verticalLabelPosition=bottom;shadow=0;dashed=0;align=center;html=1;verticalAlign=top;shape=mxgraph.electrical.abstract.amplifier;" vertex="1" parent="1">
          <mxGeometry x="137" y="30" width="50" height="55" as="geometry" />
        </mxCell>
        <mxCell id="o1f8kGy33XK3psHKGFTP-9" style="edgeStyle=orthogonalEdgeStyle;rounded=0;orthogonalLoop=1;jettySize=auto;html=1;exitX=1;exitY=0.5;exitDx=0;exitDy=0;exitPerimeter=0;entryX=1;entryY=1;entryDx=0;entryDy=0;endArrow=none;endFill=0;" edge="1" parent="1" source="o1f8kGy33XK3psHKGFTP-2" target="o1f8kGy33XK3psHKGFTP-5">
          <mxGeometry relative="1" as="geometry" />
        </mxCell>
        <mxCell id="o1f8kGy33XK3psHKGFTP-2" value="" style="verticalLabelPosition=bottom;shadow=0;dashed=0;align=center;html=1;verticalAlign=top;shape=mxgraph.electrical.abstract.amplifier;" vertex="1" parent="1">
          <mxGeometry x="137" y="150" width="50" height="55" as="geometry" />
        </mxCell>
        <mxCell id="o1f8kGy33XK3psHKGFTP-10" style="edgeStyle=orthogonalEdgeStyle;rounded=0;orthogonalLoop=1;jettySize=auto;html=1;endArrow=none;endFill=0;" edge="1" parent="1" source="o1f8kGy33XK3psHKGFTP-3" target="o1f8kGy33XK3psHKGFTP-1">
          <mxGeometry relative="1" as="geometry" />
        </mxCell>
        <mxCell id="o1f8kGy33XK3psHKGFTP-3" value="LoRa Modulator (SF&lt;sub&gt;1&lt;/sub&gt;)" style="pointerEvents=1;verticalLabelPosition=bottom;shadow=0;dashed=0;align=center;html=1;verticalAlign=top;shape=mxgraph.electrical.signal_sources.source;aspect=fixed;points=[[0.5,0,0],[1,0.5,0],[0.5,1,0],[0,0.5,0]];elSignalType=sawtooth;" vertex="1" parent="1">
          <mxGeometry x="45" y="33.75" width="47.5" height="47.5" as="geometry" />
        </mxCell>
        <mxCell id="o1f8kGy33XK3psHKGFTP-11" style="edgeStyle=orthogonalEdgeStyle;rounded=0;orthogonalLoop=1;jettySize=auto;html=1;entryX=0;entryY=0.5;entryDx=0;entryDy=0;entryPerimeter=0;endArrow=none;endFill=0;" edge="1" parent="1" source="o1f8kGy33XK3psHKGFTP-4" target="o1f8kGy33XK3psHKGFTP-2">
          <mxGeometry relative="1" as="geometry" />
        </mxCell>
        <mxCell id="o1f8kGy33XK3psHKGFTP-4" value="LoRa Modulator (SF&lt;sub&gt;n&lt;/sub&gt;)" style="pointerEvents=1;verticalLabelPosition=bottom;shadow=0;dashed=0;align=center;html=1;verticalAlign=top;shape=mxgraph.electrical.signal_sources.source;aspect=fixed;points=[[0.5,0,0],[1,0.5,0],[0.5,1,0],[0,0.5,0]];elSignalType=sawtooth;" vertex="1" parent="1">
          <mxGeometry x="43.75" y="152.5" width="50" height="50" as="geometry" />
        </mxCell>
        <mxCell id="o1f8kGy33XK3psHKGFTP-20" style="edgeStyle=orthogonalEdgeStyle;rounded=0;orthogonalLoop=1;jettySize=auto;html=1;exitX=1;exitY=0;exitDx=0;exitDy=0;entryX=-0.032;entryY=0.504;entryDx=0;entryDy=0;entryPerimeter=0;endArrow=none;endFill=0;" edge="1" parent="1" source="o1f8kGy33XK3psHKGFTP-5" target="o1f8kGy33XK3psHKGFTP-19">
          <mxGeometry relative="1" as="geometry" />
        </mxCell>
        <mxCell id="o1f8kGy33XK3psHKGFTP-5" value="" style="shape=sumEllipse;perimeter=ellipsePerimeter;html=1;backgroundOutline=1;rotation=45;" vertex="1" parent="1">
          <mxGeometry x="213.85" y="95.35" width="31" height="30" as="geometry" />
        </mxCell>
        <mxCell id="o1f8kGy33XK3psHKGFTP-13" value="&lt;b&gt;. . .&lt;/b&gt;" style="text;html=1;strokeColor=none;fillColor=none;align=center;verticalAlign=middle;whiteSpace=wrap;rounded=0;" vertex="1" parent="1">
          <mxGeometry x="20" y="95.35" width="80" height="50" as="geometry" />
        </mxCell>
        <mxCell id="o1f8kGy33XK3psHKGFTP-16" value="&lt;b&gt;. . .&lt;/b&gt;" style="text;html=1;strokeColor=none;fillColor=none;align=center;verticalAlign=middle;whiteSpace=wrap;rounded=0;" vertex="1" parent="1">
          <mxGeometry x="100" y="95.35" width="80" height="50" as="geometry" />
        </mxCell>
        <mxCell id="o1f8kGy33XK3psHKGFTP-17" value="10&lt;sup&gt;-x/10&lt;/sup&gt;" style="text;html=1;strokeColor=none;fillColor=none;align=center;verticalAlign=middle;whiteSpace=wrap;rounded=0;" vertex="1" parent="1">
          <mxGeometry x="127" y="42.5" width="60" height="30" as="geometry" />
        </mxCell>
        <mxCell id="o1f8kGy33XK3psHKGFTP-18" value="10&lt;sup&gt;-y/10&lt;/sup&gt;" style="text;html=1;strokeColor=none;fillColor=none;align=center;verticalAlign=middle;whiteSpace=wrap;rounded=0;" vertex="1" parent="1">
          <mxGeometry x="126" y="162.5" width="60" height="30" as="geometry" />
        </mxCell>
        <mxCell id="o1f8kGy33XK3psHKGFTP-19" value="LoRa Demodulator" style="rounded=1;whiteSpace=wrap;html=1;" vertex="1" parent="1">
          <mxGeometry x="295" y="80.35" width="100" height="60" as="geometry" />
        </mxCell>
      </root>
    </mxGraphModel>
  </diagram>
</mxfile>
